<?xml version="1.0" encoding="utf-8"?>
<!-- Generator: Adobe Illustrator 24.3.0, SVG Export Plug-In . SVG Version: 6.00 Build 0)  -->
<svg version="1.1" id="Capa_1" xmlns="http://www.w3.org/2000/svg" xmlns:xlink="http://www.w3.org/1999/xlink" x="0px" y="0px"
	 viewBox="0 0 16 16" style="enable-background:new 0 0 16 16;" xml:space="preserve">
<style type="text/css">
	.st0{fill:url(#SVGID_1_);}
	.st1{fill:#FFFFFF;}
	.st2{fill:url(#SVGID_2_);}
	.st3{fill:url(#SVGID_3_);}
	.st4{fill:url(#SVGID_4_);}
	.st5{fill:url(#SVGID_5_);}
	.st6{fill:url(#SVGID_6_);}
	.st7{fill:url(#SVGID_7_);}
	.st8{fill:url(#SVGID_8_);}
	.st9{fill:url(#SVGID_9_);}
	.st10{fill:url(#SVGID_10_);}
	.st11{fill:url(#SVGID_11_);}
	.st12{fill:url(#SVGID_12_);}
	.st13{fill:url(#SVGID_13_);}
	.st14{fill:url(#SVGID_14_);}
</style>
<g>
	<linearGradient id="SVGID_1_" gradientUnits="userSpaceOnUse" x1="0" y1="8" x2="16" y2="8">
		<stop  offset="0.304" style="stop-color:#A55AF0"/>
		<stop  offset="0.7663" style="stop-color:#31C5CB"/>
	</linearGradient>
	<path class="st0" d="M0,0c5.33,0,10.66,0,16,0c0,5.33,0,10.66,0,16c-5.33,0-10.67,0-16,0C0,10.67,0,5.34,0,0z M7.54,14.39
		c1.56,0,3.12,0,4.68-0.01c0.17,0,0.36-0.06,0.5-0.15c0.38-0.25,0.55-0.62,0.55-1.07c0-1.7,0-3.4,0-5.1c0-0.11,0.02-0.23,0.05-0.34
		c0.4-1.29,0.8-2.57,1.2-3.85c0.07-0.24,0.05-0.29-0.19-0.36c-2-0.62-4-1.25-6-1.87C8.1,1.55,8.05,1.57,7.98,1.81
		C7.58,3.08,7.19,4.34,6.8,5.61C6.7,5.91,6.75,5.87,6.44,5.87C5.91,5.87,5.67,5.99,5.51,6.52c0,0.02-0.01,0.03-0.02,0.04
		C5.46,6.71,5.37,6.75,5.22,6.75C4.49,6.74,3.77,6.75,3.04,6.74c-0.71-0.01-1.1,0.46-1.2,0.91C1.8,7.82,1.81,8,1.81,8.18
		c0,1.7,0,3.41,0,5.11c0,0.52,0.51,1.11,1.08,1.11C4.44,14.37,5.99,14.39,7.54,14.39z"/>
	<path class="st1" d="M7.54,14.39c-1.55,0-3.1-0.02-4.65,0.01c-0.57,0.01-1.08-0.59-1.08-1.11c0.01-1.7,0-3.41,0-5.11
		C1.81,8,1.8,7.82,1.84,7.65c0.1-0.46,0.49-0.92,1.2-0.91c0.73,0.01,1.46,0,2.19,0.01c0.15,0,0.24-0.04,0.27-0.18
		c0-0.02,0.01-0.03,0.02-0.04c0.16-0.53,0.4-0.65,0.94-0.65c0.31,0,0.26,0.04,0.35-0.26c0.4-1.26,0.79-2.53,1.18-3.79
		C8.05,1.57,8.1,1.55,8.34,1.63c2,0.62,4,1.25,6,1.87c0.23,0.07,0.26,0.12,0.19,0.36c-0.4,1.28-0.8,2.57-1.2,3.85
		c-0.03,0.11-0.05,0.23-0.05,0.34c0,1.7,0,3.4,0,5.1c0,0.45-0.17,0.83-0.55,1.07c-0.14,0.09-0.33,0.15-0.5,0.15
		C10.66,14.39,9.1,14.39,7.54,14.39z M11.21,9.32c0.53,0,1.05,0,1.58,0c0.01,0,0.01,0,0.02,0c0.1,0.01,0.16-0.01,0.16-0.14
		c-0.01-0.43,0.01-0.86-0.01-1.29c-0.02-0.44-0.37-0.86-0.85-0.83c-0.11,0.01-0.22,0-0.34,0c-0.2,0-0.24-0.03-0.26-0.24
		c-0.01-0.12-0.06-0.15-0.17-0.15c-0.29,0-0.59,0-0.88,0c-0.12,0-0.17,0.03-0.17,0.16c0.01,0.18-0.05,0.23-0.23,0.23
		c-0.14,0-0.29,0-0.43,0c-0.14,0-0.22-0.05-0.27-0.18C9.31,6.73,9.25,6.59,9.2,6.44C9.14,6.29,9.04,6.2,8.87,6.2
		c-0.89,0-1.79,0-2.68,0c-0.16,0-0.27,0.09-0.32,0.24c-0.05,0.13-0.1,0.26-0.15,0.39C5.63,7.05,5.61,7.06,5.37,7.06
		c-0.81,0-1.62,0-2.43,0c-0.21,0-0.4,0.06-0.55,0.21C2.21,7.45,2.11,7.66,2.11,7.91c0,0.41,0,0.82-0.01,1.23
		c0,0.14,0.05,0.18,0.18,0.18c1.05,0,2.1,0,3.15-0.01c0.08,0,0.18-0.05,0.23-0.1c1.05-1.08,2.68-1.08,3.73,0
		c0.06,0.06,0.16,0.1,0.25,0.11C10.16,9.33,10.69,9.32,11.21,9.32z M7.52,14.09c1.5,0,3,0,4.5,0c0.16,0,0.34-0.02,0.48-0.09
		c0.31-0.16,0.45-0.44,0.46-0.78c0.01-0.38,0-0.76,0-1.13c0-0.22,0-0.22-0.21-0.22c-0.86,0-1.72,0-2.59,0
		c-0.17,0-0.25,0.05-0.32,0.2c-0.48,0.93-1.24,1.45-2.29,1.46c-1.07,0-1.84-0.53-2.33-1.48c-0.05-0.1-0.08-0.18-0.23-0.18
		c-0.9,0.01-1.81,0.01-2.71,0c-0.13,0-0.17,0.04-0.17,0.17c0.01,0.37,0.01,0.73,0,1.1c-0.02,0.5,0.3,0.99,0.98,0.98
		C4.56,14.07,6.04,14.09,7.52,14.09z M7.58,5.86c0.07,0.01,0.11,0.01,0.15,0.01c0.35,0,0.69,0,1.04,0c0.4,0,0.6,0.15,0.74,0.51
		c0.03,0.09,0.07,0.18,0.1,0.27C9.67,6.8,9.79,6.73,9.89,6.74c0.03,0,0.09-0.05,0.1-0.09c0.06-0.23,0.12-0.29,0.36-0.29
		c0.38,0,0.76,0,1.13,0c0.22,0,0.29,0.07,0.35,0.27c0.01,0.05,0.07,0.1,0.12,0.11c0.25,0.04,0.51,0.07,0.79,0.11
		c0.27-0.87,0.55-1.78,0.84-2.69c-0.06-0.02-0.09-0.03-0.12-0.04c-1.57-0.49-3.15-0.98-4.72-1.48C8.61,2.6,8.58,2.65,8.54,2.75
		C8.32,3.49,8.08,4.23,7.85,4.97C7.76,5.26,7.67,5.55,7.58,5.86z M7.52,13.19c1.26,0,2.24-0.97,2.25-2.23
		c0-1.25-0.97-2.23-2.22-2.24c-1.26-0.01-2.27,0.98-2.27,2.23C5.28,12.19,6.28,13.19,7.52,13.19z M9.74,9.65
		c0.02,0.05,0.02,0.06,0.03,0.08c0.29,0.52,0.37,1.08,0.28,1.67c-0.02,0.14,0.05,0.15,0.15,0.15c0.87,0,1.73,0,2.6,0
		c0.13,0,0.16-0.05,0.16-0.17c-0.01-0.5,0-1,0-1.5c0-0.22,0-0.22-0.22-0.22c-0.94,0-1.88,0-2.82,0C9.87,9.65,9.81,9.65,9.74,9.65z
		 M5.32,9.67C5.26,9.66,5.23,9.65,5.19,9.65c-0.97,0-1.95,0-2.92,0c-0.13,0-0.17,0.05-0.16,0.17c0,0.51,0.01,1.01,0,1.52
		c0,0.17,0.06,0.21,0.21,0.21c0.84-0.01,1.68,0,2.52,0c0.06,0,0.11-0.01,0.19-0.01C4.91,10.87,4.99,10.25,5.32,9.67z M7.04,5.85
		C7.22,5.91,7.27,5.83,7.3,5.71c0.33-1.08,0.67-2.15,1.01-3.23C8.38,2.25,8.43,2.22,8.66,2.3c1.66,0.52,3.33,1.04,4.99,1.56
		c0.28,0.09,0.3,0.12,0.21,0.41c-0.28,0.9-0.56,1.81-0.85,2.71C12.96,7.12,13,7.22,13.12,7.31c0.02-0.05,0.03-0.08,0.04-0.11
		c0.33-1.07,0.66-2.13,1-3.2c0.07-0.21,0.06-0.21-0.14-0.27c-1.61-0.5-3.22-1-4.83-1.51c-0.3-0.09-0.61-0.19-0.92-0.28
		C7.86,3.25,7.45,4.54,7.04,5.85z"/>
	<linearGradient id="SVGID_2_" gradientUnits="userSpaceOnUse" x1="2.1047" y1="7.7623" x2="12.9627" y2="7.7623">
		<stop  offset="0.304" style="stop-color:#A55AF0"/>
		<stop  offset="0.7663" style="stop-color:#31C5CB"/>
	</linearGradient>
	<path class="st2" d="M11.21,9.32c-0.52,0-1.04,0-1.56,0c-0.08,0-0.19-0.05-0.25-0.11c-1.05-1.08-2.68-1.08-3.73,0
		c-0.06,0.06-0.15,0.1-0.23,0.1c-1.05,0.01-2.1,0-3.15,0.01c-0.14,0-0.19-0.04-0.18-0.18c0.01-0.41,0-0.82,0.01-1.23
		c0-0.25,0.1-0.46,0.28-0.64c0.15-0.15,0.33-0.21,0.55-0.21c0.81,0,1.62,0,2.43,0c0.24,0,0.27-0.02,0.35-0.24
		c0.05-0.13,0.1-0.26,0.15-0.39C5.92,6.29,6.03,6.2,6.19,6.2c0.89,0,1.79,0,2.68,0c0.16,0,0.27,0.09,0.32,0.24
		c0.06,0.15,0.12,0.3,0.17,0.45C9.41,7.01,9.5,7.07,9.63,7.07c0.14,0,0.29,0,0.43,0c0.18,0,0.23-0.05,0.23-0.23
		c0-0.13,0.05-0.16,0.17-0.16c0.29,0.01,0.59,0,0.88,0c0.11,0,0.16,0.03,0.17,0.15c0.01,0.2,0.06,0.24,0.26,0.24
		c0.11,0,0.22,0.01,0.34,0c0.49-0.03,0.84,0.39,0.85,0.83c0.02,0.43,0,0.86,0.01,1.29c0,0.12-0.06,0.14-0.16,0.14
		c-0.01,0-0.01,0-0.02,0C12.26,9.32,11.73,9.32,11.21,9.32z M3.89,8.7C3.89,8.7,3.89,8.7,3.89,8.7c0.13,0,0.25,0,0.38,0
		c0.01,0,0.02,0,0.03,0c0.22-0.02,0.36-0.16,0.37-0.38c0-0.21,0-0.41,0-0.62c0-0.23-0.13-0.39-0.37-0.4c-0.27-0.01-0.54-0.02-0.81,0
		c-0.23,0.01-0.37,0.17-0.37,0.4c-0.01,0.21-0.01,0.41,0,0.62C3.13,8.54,3.28,8.69,3.51,8.7C3.64,8.7,3.77,8.7,3.89,8.7z"/>
	<linearGradient id="SVGID_3_" gradientUnits="userSpaceOnUse" x1="2.1036" y1="12.9758" x2="12.9624" y2="12.9758">
		<stop  offset="0.304" style="stop-color:#A55AF0"/>
		<stop  offset="0.7663" style="stop-color:#31C5CB"/>
	</linearGradient>
	<path class="st3" d="M7.52,14.09c-1.48,0-2.96-0.02-4.44,0.01c-0.68,0.01-1-0.48-0.98-0.98c0.02-0.37,0.01-0.73,0-1.1
		c0-0.12,0.04-0.17,0.17-0.17c0.9,0,1.81,0.01,2.71,0c0.14,0,0.18,0.08,0.23,0.18c0.49,0.95,1.26,1.48,2.33,1.48
		c1.05,0,1.82-0.53,2.29-1.46c0.08-0.15,0.16-0.2,0.32-0.2c0.86,0.01,1.72,0,2.59,0c0.21,0,0.21,0,0.21,0.22
		c0,0.38,0.01,0.76,0,1.13c-0.01,0.34-0.15,0.63-0.46,0.78c-0.14,0.07-0.32,0.09-0.48,0.09C10.52,14.09,9.02,14.09,7.52,14.09z"/>
	<linearGradient id="SVGID_4_" gradientUnits="userSpaceOnUse" x1="7.5783" y1="4.7358" x2="13.5657" y2="4.7358">
		<stop  offset="0.304" style="stop-color:#A55AF0"/>
		<stop  offset="0.7663" style="stop-color:#31C5CB"/>
	</linearGradient>
	<path class="st4" d="M7.58,5.86c0.1-0.31,0.19-0.6,0.28-0.89c0.23-0.74,0.46-1.48,0.69-2.22c0.03-0.1,0.06-0.15,0.19-0.11
		c1.57,0.5,3.14,0.99,4.72,1.48c0.03,0.01,0.06,0.02,0.12,0.04C13.28,5.07,13,5.97,12.73,6.84c-0.28-0.04-0.53-0.07-0.79-0.11
		c-0.04-0.01-0.1-0.06-0.12-0.11c-0.06-0.21-0.13-0.27-0.35-0.27c-0.38,0-0.76,0-1.13,0c-0.24,0-0.3,0.06-0.36,0.29
		c-0.01,0.04-0.06,0.09-0.1,0.09c-0.1,0-0.22,0.06-0.28-0.08c-0.04-0.09-0.07-0.18-0.1-0.27C9.37,6.02,9.16,5.88,8.77,5.87
		c-0.35,0-0.69,0-1.04,0C7.69,5.87,7.65,5.87,7.58,5.86z M13.11,4.58c0-0.02,0-0.04,0-0.06c-1.4-0.28-2.81-0.57-4.25-0.86
		c0.08,0.23,0.13,0.41,0.2,0.58C9.11,4.38,9.11,4.5,9.02,4.63C8.9,4.79,8.8,4.98,8.7,5.16c-0.03,0.05-0.04,0.1-0.07,0.16
		c0.06,0.01,0.09,0.02,0.12,0.01c0.17-0.02,0.34-0.03,0.51-0.06c0.12-0.02,0.21,0,0.26,0.13c0.04,0.11,0.12,0.22,0.17,0.33
		C9.73,5.85,9.8,5.86,9.9,5.82c1.01-0.39,2.02-0.77,3.04-1.16C13,4.64,13.05,4.61,13.11,4.58z"/>
	<linearGradient id="SVGID_5_" gradientUnits="userSpaceOnUse" x1="5.2815" y1="10.9604" x2="9.7703" y2="10.9604">
		<stop  offset="0.304" style="stop-color:#A55AF0"/>
		<stop  offset="0.7663" style="stop-color:#31C5CB"/>
	</linearGradient>
	<path class="st5" d="M7.52,13.19c-1.25,0-2.24-1-2.24-2.24c0-1.24,1.01-2.23,2.27-2.23c1.25,0.01,2.22,0.99,2.22,2.24
		C9.77,12.22,8.78,13.2,7.52,13.19z M7.53,9.18c-0.99,0-1.79,0.8-1.79,1.78c0,0.98,0.81,1.79,1.78,1.79c0.99,0,1.79-0.81,1.79-1.8
		C9.31,9.97,8.52,9.18,7.53,9.18z"/>
	<linearGradient id="SVGID_6_" gradientUnits="userSpaceOnUse" x1="9.7438" y1="10.5907" x2="12.9627" y2="10.5907">
		<stop  offset="0" style="stop-color:#A55AF0"/>
		<stop  offset="7.484689e-03" style="stop-color:#8776E6"/>
		<stop  offset="0.0161" style="stop-color:#6C8EDE"/>
		<stop  offset="0.0261" style="stop-color:#56A3D7"/>
		<stop  offset="0.0377" style="stop-color:#45B2D2"/>
		<stop  offset="0.0521" style="stop-color:#3ABDCE"/>
		<stop  offset="0.0722" style="stop-color:#33C3CC"/>
		<stop  offset="0.1281" style="stop-color:#31C5CB"/>
	</linearGradient>
	<path class="st6" d="M9.74,9.65c0.07,0,0.12,0,0.18,0c0.94,0,1.88,0,2.82,0c0.22,0,0.22,0,0.22,0.22c0,0.5,0,1,0,1.5
		c0,0.12-0.04,0.17-0.16,0.17c-0.87,0-1.73,0-2.6,0c-0.1,0-0.17-0.01-0.15-0.15c0.09-0.58,0.01-1.14-0.28-1.67
		C9.76,9.71,9.76,9.69,9.74,9.65z"/>
	<linearGradient id="SVGID_7_" gradientUnits="userSpaceOnUse" x1="2.1038" y1="10.5905" x2="5.3183" y2="10.5905">
		<stop  offset="0.8216" style="stop-color:#A55AF0"/>
		<stop  offset="0.8589" style="stop-color:#A35CEF"/>
		<stop  offset="0.8809" style="stop-color:#9A64ED"/>
		<stop  offset="0.8989" style="stop-color:#8C71E8"/>
		<stop  offset="0.9148" style="stop-color:#7884E2"/>
		<stop  offset="0.9292" style="stop-color:#5E9CD9"/>
		<stop  offset="0.9424" style="stop-color:#3EB9CF"/>
		<stop  offset="0.9472" style="stop-color:#31C5CB"/>
	</linearGradient>
	<path class="st7" d="M5.32,9.67c-0.33,0.59-0.41,1.2-0.29,1.86c-0.08,0-0.13,0.01-0.19,0.01c-0.84,0-1.68,0-2.52,0
		c-0.16,0-0.22-0.04-0.21-0.21c0.01-0.51,0.01-1.01,0-1.52c0-0.12,0.04-0.17,0.16-0.17c0.97,0,1.95,0,2.92,0
		C5.23,9.65,5.26,9.66,5.32,9.67z"/>
	<linearGradient id="SVGID_8_" gradientUnits="userSpaceOnUse" x1="7.0446" y1="4.6193" x2="14.1915" y2="4.6193">
		<stop  offset="0.304" style="stop-color:#A55AF0"/>
		<stop  offset="0.7663" style="stop-color:#31C5CB"/>
	</linearGradient>
	<path class="st8" d="M7.04,5.85c0.41-1.3,0.81-2.6,1.22-3.92c0.32,0.1,0.62,0.19,0.92,0.28c1.61,0.5,3.22,1,4.83,1.51
		c0.2,0.06,0.2,0.06,0.14,0.27c-0.33,1.07-0.66,2.13-1,3.2c-0.01,0.04-0.02,0.07-0.04,0.11C13,7.22,12.96,7.12,13.01,6.98
		c0.29-0.9,0.57-1.81,0.85-2.71c0.09-0.29,0.07-0.32-0.21-0.41c-1.66-0.52-3.33-1.04-4.99-1.56C8.43,2.22,8.38,2.25,8.31,2.48
		C7.97,3.55,7.64,4.63,7.3,5.71C7.27,5.83,7.22,5.91,7.04,5.85z"/>
	<path class="st1" d="M3.89,8.7c-0.13,0-0.26,0-0.38,0C3.28,8.69,3.13,8.54,3.12,8.31c-0.01-0.21-0.01-0.41,0-0.62
		c0.01-0.23,0.14-0.39,0.37-0.4c0.27-0.01,0.54-0.01,0.81,0c0.23,0.01,0.36,0.17,0.37,0.4c0,0.21,0,0.41,0,0.62
		c0,0.22-0.15,0.36-0.37,0.38c-0.01,0-0.02,0-0.03,0C4.15,8.7,4.02,8.7,3.89,8.7C3.89,8.7,3.89,8.7,3.89,8.7z M3.91,8.39
		c0.11,0,0.21,0,0.32,0c0.1,0,0.15-0.03,0.14-0.14c0-0.17,0-0.34,0-0.51c0-0.1-0.04-0.14-0.14-0.14c-0.16,0-0.32,0-0.48,0
		c-0.32,0-0.32,0-0.32,0.32C3.43,8.39,3.43,8.39,3.91,8.39z"/>
	<path class="st1" d="M13.11,4.58C13.05,4.61,13,4.64,12.94,4.66c-1.01,0.39-2.03,0.77-3.04,1.16C9.8,5.86,9.73,5.85,9.69,5.74
		C9.64,5.63,9.56,5.53,9.52,5.42C9.47,5.28,9.38,5.27,9.26,5.28C9.09,5.31,8.92,5.32,8.75,5.34c-0.03,0-0.06-0.01-0.12-0.01
		C8.66,5.26,8.68,5.21,8.7,5.16C8.8,4.98,8.9,4.79,9.02,4.63C9.11,4.5,9.11,4.38,9.05,4.25C8.98,4.08,8.93,3.9,8.85,3.66
		c1.45,0.29,2.85,0.58,4.25,0.86C13.1,4.54,13.1,4.56,13.11,4.58z M9.35,4.95c0.14,0.25,0.26,0.47,0.37,0.69
		c0.05,0.1,0.1,0.11,0.21,0.07c0.9-0.34,1.81-0.68,2.71-1.02c0.03-0.01,0.07-0.03,0.1-0.05c0-0.01,0-0.01-0.01-0.02
		C11.62,4.74,10.51,4.85,9.35,4.95z M12.52,4.46C11.42,4.24,10.19,4,8.94,3.75c0.08,0.18,0.14,0.33,0.2,0.49
		c0.04,0.11,0.1,0.14,0.21,0.14c0.75,0.02,1.51,0.06,2.26,0.08C11.96,4.47,12.3,4.46,12.52,4.46z M8.77,5.17
		c0.01,0.01,0.02,0.01,0.03,0.02C8.9,5.13,9,5.06,9.11,5c0.08-0.04,0.17-0.1,0.26-0.11c0.43-0.05,0.87-0.09,1.3-0.14
		c0.58-0.06,1.17-0.11,1.75-0.17c-0.38-0.04-0.76-0.03-1.15-0.04C10.63,4.53,9.99,4.5,9.34,4.48c-0.06,0-0.15,0.01-0.17,0.04
		C9.03,4.73,8.9,4.95,8.77,5.17z M9.29,4.97c-0.16,0.1-0.31,0.18-0.46,0.27c0,0.01,0.01,0.02,0.01,0.02
		C9.03,5.25,9.21,5.23,9.41,5.2C9.36,5.11,9.33,5.05,9.29,4.97z"/>
	<path class="st1" d="M7.53,9.18c0.98,0,1.77,0.79,1.78,1.77c0,0.99-0.8,1.8-1.79,1.8c-0.98,0-1.78-0.81-1.78-1.79
		C5.74,9.97,6.55,9.18,7.53,9.18z M7.54,9.49c-0.83,0-1.49,0.65-1.49,1.47c0,0.8,0.67,1.46,1.48,1.46c0.83,0,1.47-0.64,1.47-1.47
		C9,10.13,8.37,9.49,7.54,9.49z"/>
	<linearGradient id="SVGID_9_" gradientUnits="userSpaceOnUse" x1="3.4283" y1="7.997" x2="4.3686" y2="7.997">
		<stop  offset="0.304" style="stop-color:#A55AF0"/>
		<stop  offset="0.7385" style="stop-color:#A15EEF"/>
		<stop  offset="0.8367" style="stop-color:#9F60EE"/>
		<stop  offset="0.8943" style="stop-color:#9D62ED"/>
		<stop  offset="0.9151" style="stop-color:#9668EB"/>
		<stop  offset="0.9299" style="stop-color:#8B73E7"/>
		<stop  offset="0.9419" style="stop-color:#7A82E2"/>
		<stop  offset="0.9521" style="stop-color:#6496DB"/>
		<stop  offset="0.961" style="stop-color:#49AFD3"/>
		<stop  offset="0.9673" style="stop-color:#31C5CB"/>
	</linearGradient>
	<path class="st9" d="M3.91,8.39c-0.48,0-0.48,0-0.48-0.48c0-0.32,0-0.32,0.32-0.32c0.16,0,0.32,0,0.48,0c0.1,0,0.14,0.04,0.14,0.14
		c0,0.17,0,0.34,0,0.51c0,0.1-0.05,0.14-0.14,0.14C4.12,8.39,4.01,8.39,3.91,8.39z"/>
	<linearGradient id="SVGID_10_" gradientUnits="userSpaceOnUse" x1="9.3521" y1="5.188" x2="12.7486" y2="5.188">
		<stop  offset="0.304" style="stop-color:#A55AF0"/>
		<stop  offset="0.7663" style="stop-color:#31C5CB"/>
	</linearGradient>
	<path class="st10" d="M9.35,4.95c1.15-0.11,2.27-0.21,3.39-0.32c0,0.01,0,0.01,0.01,0.02c-0.03,0.02-0.07,0.03-0.1,0.05
		c-0.9,0.34-1.81,0.68-2.71,1.02C9.83,5.76,9.78,5.75,9.72,5.65C9.61,5.42,9.49,5.21,9.35,4.95z"/>
	<linearGradient id="SVGID_11_" gradientUnits="userSpaceOnUse" x1="8.9361" y1="4.1036" x2="12.5186" y2="4.1036">
		<stop  offset="0.304" style="stop-color:#A55AF0"/>
		<stop  offset="0.7663" style="stop-color:#31C5CB"/>
	</linearGradient>
	<path class="st11" d="M12.52,4.46c-0.22,0-0.56,0.01-0.91,0C10.86,4.43,10.1,4.4,9.35,4.38c-0.11,0-0.18-0.04-0.21-0.14
		c-0.05-0.15-0.12-0.3-0.2-0.49C10.19,4,11.42,4.24,12.52,4.46z"/>
	<linearGradient id="SVGID_12_" gradientUnits="userSpaceOnUse" x1="8.7678" y1="4.8351" x2="12.4178" y2="4.8351">
		<stop  offset="0.304" style="stop-color:#A55AF0"/>
		<stop  offset="0.7663" style="stop-color:#31C5CB"/>
	</linearGradient>
	<path class="st12" d="M8.77,5.17c0.13-0.21,0.26-0.43,0.4-0.64C9.2,4.49,9.29,4.48,9.34,4.48c0.64,0.02,1.29,0.04,1.93,0.06
		c0.38,0.01,0.76,0,1.15,0.04c-0.58,0.06-1.17,0.11-1.75,0.17c-0.43,0.04-0.87,0.08-1.3,0.14C9.28,4.9,9.19,4.96,9.11,5
		C9,5.06,8.9,5.13,8.79,5.19C8.79,5.18,8.78,5.17,8.77,5.17z"/>
	<linearGradient id="SVGID_13_" gradientUnits="userSpaceOnUse" x1="8.8375" y1="5.1202" x2="9.4073" y2="5.1202">
		<stop  offset="0.304" style="stop-color:#A55AF0"/>
		<stop  offset="0.7663" style="stop-color:#31C5CB"/>
	</linearGradient>
	<path class="st13" d="M9.29,4.97C9.33,5.05,9.36,5.11,9.41,5.2c-0.2,0.02-0.38,0.04-0.56,0.06c0-0.01-0.01-0.02-0.01-0.02
		C8.98,5.16,9.13,5.07,9.29,4.97z"/>
	<linearGradient id="SVGID_14_" gradientUnits="userSpaceOnUse" x1="6.0504" y1="10.9602" x2="9.002" y2="10.9602">
		<stop  offset="0.304" style="stop-color:#A55AF0"/>
		<stop  offset="0.7663" style="stop-color:#31C5CB"/>
	</linearGradient>
	<path class="st14" d="M7.54,9.49C8.37,9.49,9,10.13,9,10.96c0,0.83-0.64,1.47-1.47,1.47c-0.82,0-1.48-0.66-1.48-1.46
		C6.05,10.14,6.71,9.49,7.54,9.49z"/>
</g>
</svg>
