<svg id="Capa_1" data-name="Capa 1" xmlns="http://www.w3.org/2000/svg" xmlns:xlink="http://www.w3.org/1999/xlink" viewBox="0 0 300 300"><defs><style>.cls-1{fill:#fff;}.cls-2{fill:url(#Degradado_sin_nombre_143);}.cls-3{fill:url(#Degradado_sin_nombre_152);}.cls-4{fill:url(#Degradado_sin_nombre_149);}.cls-5{fill:url(#Nueva_muestra_de_degradado_1);}.cls-6{fill:url(#Nueva_muestra_de_degradado_1-2);}.cls-7{fill:url(#Nueva_muestra_de_degradado_1-3);}.cls-8{fill:#31c5cb;}</style><linearGradient id="Degradado_sin_nombre_143" x1="272.94" y1="149.69" x2="33.89" y2="149.69" gradientUnits="userSpaceOnUse"><stop offset="0.24" stop-color="#31c5cb"/><stop offset="0.31" stop-color="#44b4d1"/><stop offset="0.53" stop-color="#7883e2"/><stop offset="0.7" stop-color="#9965ec"/><stop offset="0.79" stop-color="#a55af0"/></linearGradient><linearGradient id="Degradado_sin_nombre_152" x1="58.49" y1="149.67" x2="87.66" y2="149.67" gradientUnits="userSpaceOnUse"><stop offset="0.3" stop-color="#a55af0"/><stop offset="0.79" stop-color="#31c5cb"/></linearGradient><linearGradient id="Degradado_sin_nombre_149" x1="107.68" y1="205.4" x2="174.61" y2="205.4" gradientUnits="userSpaceOnUse"><stop offset="0.3" stop-color="#a55af0"/><stop offset="0.77" stop-color="#31c5cb"/></linearGradient><linearGradient id="Nueva_muestra_de_degradado_1" x1="175.35" y1="97.11" x2="239.04" y2="97.11" gradientUnits="userSpaceOnUse"><stop offset="0.36" stop-color="#31c5cb"/><stop offset="0.7" stop-color="#a55af0"/></linearGradient><linearGradient id="Nueva_muestra_de_degradado_1-2" x1="167.55" y1="76.78" x2="234.72" y2="76.78" xlink:href="#Nueva_muestra_de_degradado_1"/><linearGradient id="Nueva_muestra_de_degradado_1-3" x1="164.4" y1="90.49" x2="232.83" y2="90.49" xlink:href="#Nueva_muestra_de_degradado_1"/></defs><path class="cls-1" d="M0-.16H300v300H0ZM141.3,269.58c29.25,0,58.49.09,87.74-.13a18.59,18.59,0,0,0,9.46-2.87c7.15-4.61,10.26-11.63,10.26-20.12q0-47.78,0-95.55a21.89,21.89,0,0,1,1-6.43c7.44-24.11,15-48.18,22.48-72.26,1.39-4.47.9-5.37-3.48-6.74L156.29,30.35c-4.5-1.4-5.29-1-6.7,3.51q-11.1,35.55-22.18,71.1c-1.8,5.73-.78,5-6.61,5-10-.11-14.46,2.14-17.55,12.12-.08.29-.27.55-.33.83-.54,2.78-2.25,3.47-5,3.44-13.68-.12-27.35.1-41-.1-13.36-.19-20.68,8.55-22.51,17.14-.67,3.17-.45,6.55-.45,9.83,0,31.95.06,63.9-.07,95.84,0,9.7,9.62,20.9,20.27,20.72C83.2,269.26,112.25,269.58,141.3,269.58Z" transform="translate(0 0.16)"/><path class="cls-2" d="M141.3,269.58c-29.05,0-58.1-.32-87.14.16-10.65.18-20.3-11-20.27-20.72.13-31.94,0-63.89.07-95.84,0-3.28-.22-6.66.45-9.83,1.83-8.59,9.15-17.33,22.51-17.14,13.68.2,27.35,0,41,.1,2.72,0,4.43-.66,5-3.44.06-.28.25-.54.33-.83,3.09-10,7.54-12.23,17.55-12.12,5.83.07,4.81.77,6.61-5q11.13-35.53,22.18-71.1c1.41-4.51,2.2-4.91,6.7-3.51L268.77,65.48c4.38,1.37,4.87,2.27,3.48,6.74-7.49,24.08-15,48.15-22.48,72.26a21.89,21.89,0,0,0-1,6.43q-.09,47.78,0,95.55c0,8.49-3.11,15.51-10.26,20.12a18.59,18.59,0,0,1-9.46,2.87C199.79,269.67,170.55,269.58,141.3,269.58Zm68.84-94.94h29.94c1.86.16,3-.25,3-2.55-.11-8.08.16-16.18-.13-24.25s-6.9-16.22-16-15.57c-2.08.15-4.19,0-6.28,0-3.77,0-4.57-.65-4.83-4.48-.15-2.24-1.09-2.89-3.18-2.86-5.48.08-11,.09-16.46,0-2.23,0-3.25.56-3.18,3,.1,3.31-1,4.23-4.29,4.29-2.69.06-5.39-.05-8.08,0a4.55,4.55,0,0,1-5-3.38c-1-2.82-2.16-5.58-3.2-8.38s-2.94-4.47-6-4.47q-25.15,0-50.3,0c-3.08,0-5,1.65-6.09,4.44-.93,2.42-1.83,4.85-2.76,7.27-1.61,4.21-2,4.51-6.58,4.51-15.17,0-30.34.05-45.52,0a13.93,13.93,0,0,0-10.29,4,16.4,16.4,0,0,0-5.27,12c0,7.69,0,15.38-.12,23.06-.05,2.64.85,3.42,3.45,3.4,19.67-.09,39.33,0,59-.13a6.78,6.78,0,0,0,4.34-1.92c19.7-20.29,50.34-20.31,69.93,0a7.22,7.22,0,0,0,4.62,2C190.57,174.73,200.35,174.64,210.14,174.64ZM141,264c28.14,0,56.27.05,84.41-.07a20.68,20.68,0,0,0,8.93-1.7c5.85-2.93,8.47-8.3,8.63-14.72.18-7.08.05-14.16.05-21.25,0-4.13,0-4.14-4-4.14-16.16,0-32.33.08-48.49-.08-3.1,0-4.6.93-6.06,3.76-9,17.44-23.29,27.25-43,27.32-20.14.07-34.56-10-43.7-27.74-.94-1.82-1.59-3.35-4.22-3.33-17,.13-33.92.11-50.88,0-2.36,0-3.16.78-3.12,3.11.1,6.88.27,13.78,0,20.65-.39,9.3,5.58,18.55,18.32,18.32C85.51,263.68,113.25,264,141,264Zm1.11-154.32c1.31.11,2.09.23,2.87.23,6.49,0,13,0,19.46,0,7.41.09,11.19,2.78,13.82,9.63.64,1.68,1.28,3.35,1.95,5,1.08,2.64,3.4,1.48,5.22,1.51.62,0,1.64-1,1.81-1.71,1.05-4.37,2.23-5.45,6.75-5.47q10.62-.06,21.25,0c4.09,0,5.42,1.25,6.52,5.15a3.37,3.37,0,0,0,2.17,2.06c4.74.79,9.54,1.33,14.76,2l15.69-50.37c-1.07-.38-1.62-.59-2.18-.77Q208,63.21,163.75,49.34c-2.32-.73-2.95.16-3.53,2.06q-6.43,20.85-13,41.68Zm-1,137.52a41.47,41.47,0,0,0,42.11-41.78c.07-23.5-18.12-41.88-41.57-42C118,163.34,99.06,181.87,99,205.2A42,42,0,0,0,141.08,247.23Zm41.62-66.55a11.94,11.94,0,0,0,.48,1.42c5.45,9.78,6.92,20.25,5.19,31.22-.41,2.58.89,2.81,2.86,2.8,16.26,0,32.51-.05,48.77,0,2.37,0,3.08-.84,3.05-3.16-.11-9.38,0-18.75,0-28.13,0-4.15,0-4.16-4.07-4.17H182.7Zm-83,.38a17.45,17.45,0,0,0-2.37-.36c-18.26,0-36.53,0-54.79,0-2.39,0-3.1.94-3.08,3.2.08,9.49.15,19,0,28.45-.06,3.11,1,3.89,4,3.87,15.76-.12,31.53-.06,47.3-.07,1.07,0,2.13-.12,3.58-.2C92,203.58,93.59,192.06,99.72,181.06Zm32.37-71.6c3.29,1.26,4.15-.36,4.85-2.64q9.38-30.28,18.87-60.53c1.36-4.34,2.17-4.74,6.5-3.39l93.61,29.24c5.33,1.67,5.63,2.28,3.92,7.72-5.29,16.93-10.54,33.88-15.93,50.79-.86,2.7-.23,4.5,2,6.19.3-.85.55-1.49.75-2.15q9.36-30,18.7-59.95c1.22-3.92,1.21-3.95-2.55-5.13L172.33,41.38c-5.68-1.77-11.38-3.5-17.32-5.33C147.31,60.7,139.72,85,132.09,109.46Z" transform="translate(0 0.16)"/><path class="cls-1" d="M210.14,174.64c-9.79,0-19.57.09-29.35-.09a7.22,7.22,0,0,1-4.62-2c-19.59-20.26-50.23-20.24-69.93,0a6.78,6.78,0,0,1-4.34,1.92c-19.66.13-39.32,0-59,.13-2.6,0-3.5-.76-3.45-3.4.16-7.68.07-15.37.12-23.06a16.4,16.4,0,0,1,5.27-12,13.93,13.93,0,0,1,10.29-4c15.18.07,30.35,0,45.52,0,4.55,0,5-.3,6.58-4.51.93-2.42,1.83-4.85,2.76-7.27,1.07-2.79,3-4.43,6.09-4.44q25.16,0,50.3,0c3.09,0,5,1.65,6,4.47s2.22,5.56,3.2,8.38a4.55,4.55,0,0,0,5,3.38c2.69-.09,5.39,0,8.08,0,3.32-.06,4.39-1,4.29-4.29-.07-2.48.95-3.07,3.18-3,5.48.1,11,.09,16.46,0,2.09,0,3,.62,3.18,2.86.26,3.83,1.06,4.43,4.83,4.48,2.09,0,4.2.13,6.28,0,9.11-.65,15.71,7.41,16,15.57s0,16.17.13,24.25c0,2.3-1.1,2.71-3,2.55H210.14ZM73,162.92v0h7.17q.3,0,.6,0c4.13-.33,6.8-3.07,6.86-7.17.06-3.88,0-7.77,0-11.65,0-4.31-2.5-7.25-6.85-7.49a143.09,143.09,0,0,0-15.22,0c-4.32.24-6.89,3.17-7,7.46-.1,3.88-.12,7.77,0,11.65a7.14,7.14,0,0,0,7.25,7.21C68.21,163,70.6,162.92,73,162.92Z" transform="translate(0 0.16)"/><path class="cls-1" d="M141,264c-27.73,0-55.47-.35-83.2.16-12.74.23-18.71-9-18.32-18.32.29-6.87.12-13.77,0-20.65,0-2.33.76-3.12,3.12-3.11,17,.08,33.92.1,50.88,0,2.63,0,3.28,1.51,4.22,3.33,9.14,17.77,23.56,27.81,43.7,27.74,19.74-.07,34.06-9.88,43-27.32,1.46-2.83,3-3.78,6.06-3.76,16.16.16,32.33.07,48.49.08,4,0,4,0,4,4.14,0,7.09.13,14.17-.05,21.25-.16,6.42-2.78,11.79-8.63,14.72a20.68,20.68,0,0,1-8.93,1.7C197.25,264.08,169.12,264,141,264Z" transform="translate(0 0.16)"/><path class="cls-1" d="M142.09,109.71l5.17-16.63q6.48-20.83,13-41.68c.58-1.9,1.21-2.79,3.53-2.06Q207.94,63.28,252.18,77c.56.18,1.11.39,2.18.77l-15.69,50.37c-5.22-.69-10-1.23-14.76-2a3.37,3.37,0,0,1-2.17-2.06c-1.1-3.9-2.43-5.12-6.52-5.15q-10.64-.06-21.25,0c-4.52,0-5.7,1.1-6.75,5.47-.17.7-1.19,1.71-1.81,1.71-1.82,0-4.14,1.13-5.22-1.51-.67-1.67-1.31-3.34-1.95-5-2.63-6.85-6.41-9.54-13.82-9.63-6.49-.08-13,0-19.46,0C144.18,109.94,143.4,109.82,142.09,109.71ZM245.72,85.77l-.07-1.12-79.76-16.1c1.52,4.38,2.52,7.7,3.84,10.9,1.07,2.6,1.12,4.7-.66,7.15a103.66,103.66,0,0,0-5.88,10.06c-.5.89-.83,1.87-1.33,3a11.13,11.13,0,0,0,2.22.28c3.17-.31,6.35-.62,9.49-1.08,2.31-.33,4,0,5,2.49.8,2.13,2.17,4,3.1,6.13s2,2.27,4,1.51q28.44-11,56.94-21.78C243.67,86.83,244.68,86.27,245.72,85.77Z" transform="translate(0 0.16)"/><path class="cls-1" d="M141.08,247.23A42,42,0,0,1,99,205.2c0-23.33,18.93-41.86,42.59-41.74,23.45.11,41.64,18.49,41.57,42A41.47,41.47,0,0,1,141.08,247.23Zm.2-75.33a33.5,33.5,0,1,0,33.33,33.24A33.5,33.5,0,0,0,141.28,171.9Z" transform="translate(0 0.16)"/><path class="cls-1" d="M182.7,180.68h56.24c4.06,0,4.06,0,4.07,4.17,0,9.38-.07,18.75,0,28.13,0,2.32-.68,3.17-3.05,3.16-16.26-.07-32.51,0-48.77,0-2,0-3.27-.22-2.86-2.8,1.73-11,.26-21.44-5.19-31.22A11.94,11.94,0,0,1,182.7,180.68Z" transform="translate(0 0.16)"/><path class="cls-1" d="M99.72,181.06c-6.13,11-7.69,22.52-5.41,34.84-1.45.08-2.51.2-3.58.2-15.77,0-31.54,0-47.3.07-3,0-4-.76-4-3.87.18-9.48.11-19,0-28.45,0-2.26.69-3.21,3.08-3.2,18.26.07,36.53,0,54.79,0A17.45,17.45,0,0,1,99.72,181.06Z" transform="translate(0 0.16)"/><path class="cls-1" d="M132.09,109.46C139.72,85,147.31,60.7,155,36.05c5.94,1.83,11.64,3.56,17.32,5.33l90.49,28.23c3.76,1.18,3.77,1.21,2.55,5.13q-9.35,30-18.7,60c-.2.66-.45,1.3-.75,2.15-2.24-1.69-2.87-3.49-2-6.19,5.39-16.91,10.64-33.86,15.93-50.79,1.71-5.44,1.41-6-3.92-7.72L162.31,42.9c-4.33-1.35-5.14-.95-6.5,3.39q-9.47,30.25-18.87,60.53C136.24,109.1,135.38,110.72,132.09,109.46Z" transform="translate(0 0.16)"/><path class="cls-3" d="M73,162.92c-2.39,0-4.78.09-7.16,0a7.14,7.14,0,0,1-7.25-7.21c-.13-3.88-.11-7.77,0-11.65.1-4.29,2.67-7.22,7-7.46a143.09,143.09,0,0,1,15.22,0c4.35.24,6.81,3.18,6.85,7.49,0,3.88.05,7.77,0,11.65-.06,4.1-2.73,6.84-6.86,7.17q-.3,0-.6,0H73Zm.25-5.72c2,0,4,0,6,0s2.76-.63,2.71-2.6c-.08-3.18-.09-6.36,0-9.54,0-1.93-.81-2.71-2.65-2.71-3,0-6,0-8.94,0-6,0-6,0-6,5.93C64.28,157.2,64.28,157.2,73.24,157.2Z" transform="translate(0 0.16)"/><path d="M245.72,85.77c-1,.5-2.05,1.06-3.12,1.47Q214.13,98.13,185.66,109c-2,.76-3.14.48-4-1.51s-2.3-4-3.1-6.13c-.95-2.54-2.66-2.82-5-2.49-3.14.46-6.32.77-9.49,1.08a11.13,11.13,0,0,1-2.22-.28c.5-1.16.83-2.14,1.33-3a103.66,103.66,0,0,1,5.88-10.06c1.78-2.45,1.73-4.55.66-7.15-1.32-3.2-2.32-6.52-3.84-10.9l79.76,16.1Zm-70.37,7c2.58,4.75,4.89,8.8,7,13,1,2,2,2.15,3.95,1.39,16.93-6.45,33.9-12.78,50.86-19.15.64-.25,1.26-.57,1.9-.85l-.14-.35Zm59.37-9.29L167.55,70.06c1.43,3.46,2.71,6.24,3.72,9.12.71,2,1.93,2.63,4,2.7,14.15.45,28.29,1.1,42.43,1.52C224.16,83.6,230.61,83.44,234.72,83.44ZM164.4,96.73l.5.38c2-1.18,3.87-2.43,5.87-3.51,1.57-.85,3.19-1.92,4.89-2.12,8.09-1,16.22-1.75,24.34-2.56q16.42-1.62,32.83-3.2c-7.16-.7-14.32-.56-21.48-.73-12-.28-24.1-.78-36.16-1.11-1.09,0-2.73.13-3.21.82C169.3,88.61,166.89,92.7,164.4,96.73Zm9.85-3.65-8.55,5.07.19.45,10.5-1.21Z" transform="translate(0 0.16)"/><path class="cls-4" d="M141.28,171.9a33.5,33.5,0,0,1-.17,67,33.5,33.5,0,1,1,.17-67Zm0,5.94a27.51,27.51,0,1,0-.05,55,27.51,27.51,0,1,0,.05-55Z" transform="translate(0 0.16)"/><path class="cls-1" d="M73.24,157.2c-9,0-9,0-9-8.92,0-5.93,0-5.94,6-5.93,3,0,6,0,8.94,0,1.84,0,2.7.78,2.65,2.71-.09,3.18-.08,6.36,0,9.54,0,2-.85,2.66-2.71,2.6S75.23,157.2,73.24,157.2Z" transform="translate(0 0.16)"/><path class="cls-5" d="M175.35,92.73l63.55-6,.14.35c-.64.28-1.26.6-1.9.85-17,6.37-33.93,12.7-50.86,19.15-2,.76-3,.57-3.95-1.39C180.24,101.53,177.93,97.48,175.35,92.73Z" transform="translate(0 0.16)"/><path class="cls-6" d="M234.72,83.44c-4.11,0-10.56.16-17,0-14.14-.42-28.28-1.07-42.43-1.52-2.08-.07-3.3-.67-4-2.7-1-2.88-2.29-5.66-3.72-9.12Z" transform="translate(0 0.16)"/><path class="cls-7" d="M164.4,96.73c2.49-4,4.9-8.12,7.58-12,.48-.69,2.12-.85,3.21-.82,12.06.33,24.11.83,36.16,1.11,7.16.17,14.32,0,21.48.73q-16.41,1.61-32.83,3.2c-8.12.81-16.25,1.56-24.34,2.56-1.7.2-3.32,1.27-4.89,2.12-2,1.08-3.91,2.33-5.87,3.51Z" transform="translate(0 0.16)"/><path class="cls-8" d="M174.25,93.08l2.14,4.31-10.5,1.21-.19-.45Z" transform="translate(0 0.16)"/><path class="cls-1" d="M141.3,177.84a27.51,27.51,0,1,1-.05,55,27.51,27.51,0,1,1,.05-55Z" transform="translate(0 0.16)"/></svg>